# xmcd CD database file
#
# Track frame offsets:
#	150
#	16132
#	27894
#	37373
#	53850
#	62748
#	72852
#	85289
#	96325
#	110102
#	118189
#	138630
#	149684
#	157044
#
# Disc length: 2254 seconds
#
# Revision: 0
# Processed by: cddbd v1.5.2PL0 Copyright (c) Steve Scherf et al.
# Submitted via: CDex 1.50
#
DISCID=d708cc0e
DTITLE=Lauber, Kai - Blue Wave
DYEAR=1998
DGENRE=Jazz
TTITLE0=Blue Wave
TTITLE1=September Blues
TTITLE2=Cantalupe_Island
TTITLE3=Tree Street
TTITLE4=You And Now
TTITLE5=Mean_To_Me
TTITLE6=Stella By Starlight
TTITLE7=Waltz For You
TTITLE8=Straight Ahead
TTITLE9=Meditation
TTITLE10=Pe. Es. Groove
TTITLE11=Georgia_On_My_Mind
TTITLE12=Felicidade
TTITLE13=Blue Wave, alt.
EXTD=YEAR: 1998
EXTT0=
EXTT1=
EXTT2=
EXTT3=
EXTT4=
EXTT5=
EXTT6=
EXTT7=
EXTT8=
EXTT9=
EXTT10=
EXTT11=
EXTT12=
EXTT13=
PLAYORDER=
